# xmcd
#
# Track frame offsets:
# 150
# 12705
# 30827
# 43582
# 60201
# 78495
# 92651
# 108844
# 123067
# 134996
#
# Disc length: 1993 seconds
#
#
# Revision: 0
# Processed by: cddbd v1.5.1PL2 Copyright (c) Steve Scherf et al.
# Submitted via: FreeRIP 2.944 
#
DISCID=7607c70a
DTITLE=Ken Mellons - Ken Mellons
DYEAR=1994
DGENRE=Country
TTITLE0=Jukebox Junkie
TTITLE1=I Can Bring Her Back
TTITLE2=Lookin' In The Same Direction
TTITLE3=The pleasure`s all mine
TTITLE4=Workin' for the Weekend
TTITLE5=Seven Lonely Days (Makes One Weak)
TTITLE6=Keepin' It Country
TTITLE7=Learnin' To Live Without You
TTITLE8=Honky Tonk Teachers
TTITLE9=Doctor Jesus
EXTD=
EXTT0=
EXTT1=
EXTT2=
EXTT3=
EXTT4=
EXTT5=
EXTT6=
EXTT7=
EXTT8=
EXTT9=
PLAYORDER=
